<?xml version="1.0" encoding="utf-8"?>
<svg height="81.827" width="564.422" version="1.1" style="" xmlns="http://www.w3.org/2000/svg" xmlns:xlink="http://www.w3.org/1999/xlink" xmlns:bx="https://boxy-svg.com">
  <rect id="backgroundrect" width="100%" height="100%" x="0" y="0" fill="none" stroke="none"/>
  <defs id="defs10538">
    <filter id="hue-rotate-filter-0" x="-500%" y="-500%" width="1000%" height="1000%" bx:preset="hue-rotate 1 90">
      <feColorMatrix type="hueRotate" values="90"/>
    </filter>
  </defs>
  <g class="currentLayer" style="">
    <title>Layer 1</title>
    <g id="logo-group" class="">
      <image id="container" x="-6.90941062528786" y="-20.483495171215388" width="581.3663958721137" height="656.1676342099447" style="display: none;" xlink:href="undefined"/>
      <g id="logo-center">
        <image id="icon_container" style="display: none;" y="-217.3337854341988" x="-336.3503682861522" height="0" width="0" xlink:href="undefined"/>
        <g id="slogan" style="font-style:oblique;font-weight:100;font-size:32px;line-height:1;font-family:Overpass;font-variant-ligatures:none;text-align:center;text-anchor:middle"/>
        <g id="title" style="font-style:normal;font-weight:normal;font-size:72px;line-height:1;font-family:'Brandmark Sans 28';font-variant-ligatures:normal;text-align:center;text-anchor:middle">
          <g id="path10543" aria-label="M" transform="translate(0,293.7591857910156) " style="filter: url(#hue-rotate-filter-0); opacity: 0.9;">
            <polygon class="c1" points="55.10346603393555,-286.2313709259033 55.10346603393555,-286.22908210754395 54.302127838134766,-286.22908210754395 38.63662338256836,-256.24669075012207 22.97141456604004,-286.22908210754395 22.16681671142578,-286.22908210754395 22.16681671142578,-286.2313709259033 4.482881546020508,-286.2313709259033 4.482881546020508,-217.28399848937988 22.16681671142578,-217.28399848937988 22.16681671142578,-253.92732429504395 29.795242309570312,-239.32780647277832 38.63662338256836,-222.4088306427002 47.478294372558594,-239.32780647277832 55.10346603393555,-253.92137336730957 55.10346603393555,-217.28399848937988 72.78741455078125,-217.28399848937988 72.78741455078125,-286.2313709259033 " stroke-width="0" stroke-linejoin="miter" stroke-miterlimit="2" fill="#1f6de3" style="stroke: rgb(31, 109, 227);" id="svg_1"/>
            <linearGradient id="179f5edb-eb41-4d3e-a247-0dd9023cf3e8" x1="0.24342034512538377" y1="0.015535499593003085" x2="0.850689587123823" y2="0.8484389572446513" transform="translate(0,16.78321647644043) translate(-20.27971839904785,84.6153793334961) translate(-11.888111114501953,-4.195804119110107) translate(-244.75523376464844,-228.6713104248047) translate(5.684341886080802e-14,0) translate(281.40594482421875,-50.400001525878906) scale(1) translate(-281.40594482421875,50.400001525878906) translate(24.76259994506836,10.4920654296875) scale(1.1704524755477905,1.3090660572052002) translate(-24.76259994506836,-10.4920654296875) translate(3.8300414085388184,3.2973406314849854) scale(0.9819573760032654,0.9734391570091248) translate(-3.8300414085388184,-3.2973406314849854) translate(3.9004151821136475,9.51029109954834) scale(1.0538098812103271,1.0727615356445312) translate(-3.9004151821136475,-9.51029109954834) ">
              <stop offset="0" style="stop-color:#FFFFFF;stop-opacity:0.5"/>
              <stop offset="0.0138" style="stop-color:#FFFFFF;stop-opacity:0.49309"/>
              <stop offset="1" style="stop-color:#FFFFFF;stop-opacity:0"/>
            </linearGradient>
            <polygon class="highlight" fill="url(#179f5edb-eb41-4d3e-a247-0dd9023cf3e8)" points="47.478145599365234,-239.3277759552002 38.63669204711914,-222.408784866333 29.795278549194336,-239.3277759552002 5.288474082946777,-286.22908210754395 22.971303939819336,-286.22908210754395 38.63669204711914,-256.2467212677002 " stroke-width="0" stroke-linejoin="miter" stroke-miterlimit="2" opacity="1" style="stroke: rgb(31, 109, 227);" id="svg_2"/>
            <linearGradient id="3ecb61f0-9729-4162-8dee-806193148f82" x1="0.499999738728076" y1="-0.0037269345063642117" x2="0.499999738728076" y2="0.9646087951600375" transform="translate(0,16.78321647644043) translate(-20.27971839904785,84.6153793334961) translate(-11.888111114501953,-4.195804119110107) translate(-244.75523376464844,-228.6713104248047) translate(5.684341886080802e-14,0) translate(281.40594482421875,-50.400001525878906) scale(1) translate(-281.40594482421875,50.400001525878906) translate(24.76259994506836,10.4920654296875) scale(1.1704524755477905,1.3090660572052002) translate(-24.76259994506836,-10.4920654296875) translate(3.8300414085388184,3.2973406314849854) scale(0.9819573760032654,0.9734391570091248) translate(-3.8300414085388184,-3.2973406314849854) translate(3.9004151821136475,9.51029109954834) scale(1.0538098812103271,1.0727615356445312) translate(-3.9004151821136475,-9.51029109954834) ">
              <stop offset="0" style="stop-color:#FFFFFF;stop-opacity:0.5"/>
              <stop offset="0.0138" style="stop-color:#FFFFFF;stop-opacity:0.49309"/>
              <stop offset="1" style="stop-color:#FFFFFF;stop-opacity:0"/>
            </linearGradient>
            <polygon class="highlight" fill="url(#3ecb61f0-9729-4162-8dee-806193148f82)" points="72.78741455078125,-217.28399848937988 55.103572845458984,-217.28399848937988 55.103572845458984,-286.2313404083252 72.78741455078125,-286.2313404083252 " stroke-width="0" stroke-linejoin="miter" stroke-miterlimit="2" opacity="1" style="stroke: rgb(31, 109, 227);" id="svg_3"/>
            <linearGradient id="0e0a1591-ac38-4980-b2ec-fbb1db88f246" x1="1.3732191909583975" y1="0.07933448743991808" x2="-0.33680642654118864" y2="1.222815063870571" transform="translate(0,16.78321647644043) translate(-20.27971839904785,84.6153793334961) translate(-11.888111114501953,-4.195804119110107) translate(-244.75523376464844,-228.6713104248047) translate(5.684341886080802e-14,0) translate(281.40594482421875,-50.400001525878906) scale(1) translate(-281.40594482421875,50.400001525878906) translate(24.76259994506836,10.4920654296875) scale(1.1704524755477905,1.3090660572052002) translate(-24.76259994506836,-10.4920654296875) translate(3.8300414085388184,3.2973406314849854) scale(0.9819573760032654,0.9734391570091248) translate(-3.8300414085388184,-3.2973406314849854) translate(3.9004151821136475,9.51029109954834) scale(1.0538098812103271,1.0727615356445312) translate(-3.9004151821136475,-9.51029109954834) ">
              <stop offset="0" style="stop-color:#000000;stop-opacity:0.4"/>
              <stop offset="0.276" style="stop-color:#0F0D0D;stop-opacity:0.28962"/>
              <stop offset="0.6748" style="stop-color:#1E1A1B;stop-opacity:0.13006"/>
              <stop offset="1" style="stop-color:#231F20;stop-opacity:0"/>
            </linearGradient>
            <polygon class="highlight" fill="url(#0e0a1591-ac38-4980-b2ec-fbb1db88f246)" points="54.302127838134766,-286.22908210754395 38.63691329956055,-256.2472095489502 47.478294372558594,-239.32780647277832 55.10346603393555,-253.92122077941895 55.10346603393555,-286.22908210754395 " stroke-width="0" stroke-linejoin="miter" stroke-miterlimit="2" opacity="1" style="stroke: rgb(31, 109, 227);" id="svg_4"/>
            <linearGradient id="81a32deb-ebec-4161-bf1b-e07e5ddc19a0" x1="0.5" y1="0.004975495397757518" x2="0.5" y2="0.9777157042590464" transform="translate(0,16.78321647644043) translate(-20.27971839904785,84.6153793334961) translate(-11.888111114501953,-4.195804119110107) translate(-244.75523376464844,-228.6713104248047) translate(5.684341886080802e-14,0) translate(281.40594482421875,-50.400001525878906) scale(1) translate(-281.40594482421875,50.400001525878906) translate(24.76259994506836,10.4920654296875) scale(1.1704524755477905,1.3090660572052002) translate(-24.76259994506836,-10.4920654296875) translate(3.8300414085388184,3.2973406314849854) scale(0.9819573760032654,0.9734391570091248) translate(-3.8300414085388184,-3.2973406314849854) translate(3.9004151821136475,9.51029109954834) scale(1.0538098812103271,1.0727615356445312) translate(-3.9004151821136475,-9.51029109954834) ">
              <stop offset="0" style="stop-color:#000000;stop-opacity:0.4"/>
              <stop offset="0.276" style="stop-color:#0F0D0D;stop-opacity:0.28962"/>
              <stop offset="0.6748" style="stop-color:#1E1A1B;stop-opacity:0.13006"/>
              <stop offset="1" style="stop-color:#231F20;stop-opacity:0"/>
            </linearGradient>
            <polygon class="highlight" fill="url(#81a32deb-ebec-4161-bf1b-e07e5ddc19a0)" points="5.287181377410889,-286.2313709259033 4.482881546020508,-286.2313709259033 4.482881546020508,-217.28399848937988 22.16681671142578,-217.28399848937988 22.16681671142578,-253.92830085754395 " stroke-width="0" stroke-linejoin="miter" stroke-miterlimit="2" opacity="1" style="stroke: rgb(31, 109, 227);" id="svg_5"/>
          </g>
          <g id="path10545" aria-label="A" transform="translate(0,293.7591857910156) " style="filter: url(#hue-rotate-filter-0); opacity: 0.9;">
            <polygon class="c1" points="143.7382049560547,-217.28428840637207 120.7024917602539,-286.2313709259033 119.62422943115234,-286.2313709259033 102.21492767333984,-286.2313709259033 101.13658905029297,-286.2313709259033 78.37542724609375,-217.28428840637207 96.86307525634766,-217.28428840637207 110.97174072265625,-260.0216236114502 125.25054931640625,-217.28428840637207 " stroke-width="0" stroke-linejoin="miter" stroke-miterlimit="2" fill="#1f6de3" style="stroke: rgb(31, 109, 227);" id="svg_6"/>
            <linearGradient id="6ec3eae0-3e48-4164-b6c7-3c6dcf91f1b8" x1="0.7833397627262777" y1="0.004070175778286678" x2="0.22135122989582592" y2="0.9877186791071723" transform="translate(0,16.78321647644043) translate(-20.27971839904785,84.6153793334961) translate(-11.888111114501953,-4.195804119110107) translate(-244.75523376464844,-228.6713104248047) translate(5.684341886080802e-14,0) translate(342.4147033691406,-50.400001525878906) scale(1) translate(-342.4147033691406,50.400001525878906) translate(24.76259994506836,10.4920654296875) scale(1.1704524755477905,1.3090660572052002) translate(-24.76259994506836,-10.4920654296875) translate(3.8300414085388184,3.2973406314849854) scale(0.9819573760032654,0.9734391570091248) translate(-3.8300414085388184,-3.2973406314849854) translate(3.9004151821136475,9.51029109954834) scale(1.0538098812103271,1.0727615356445312) translate(-3.9004151821136475,-9.51029109954834) ">
              <stop offset="0.22" style="stop-color:#231F20;stop-opacity:0"/>
              <stop offset="0.4736" style="stop-color:#1E1A1B;stop-opacity:0.13006"/>
              <stop offset="0.7848" style="stop-color:#0F0D0D;stop-opacity:0.28962"/>
              <stop offset="1" style="stop-color:#000000;stop-opacity:0.4"/>
            </linearGradient>
            <polygon class="highlight" fill="url(#6ec3eae0-3e48-4164-b6c7-3c6dcf91f1b8)" points="119.62422943115234,-286.2313404083252 101.13658905029297,-286.2313404083252 78.3754653930664,-217.28428840637207 96.86307525634766,-217.28428840637207 " stroke-width="0" stroke-linejoin="miter" stroke-miterlimit="2" opacity="1" style="stroke: rgb(31, 109, 227);" id="svg_7"/>
            <linearGradient id="324b32a4-0a9f-4bbc-af49-912ba2e1d228" x1="0.7833397627262777" y1="0.004070175778286678" x2="0.22135122989582592" y2="0.9877186791071723" transform="translate(0,16.78321647644043) translate(-20.27971839904785,84.6153793334961) translate(-11.888111114501953,-4.195804119110107) translate(-244.75523376464844,-228.6713104248047) translate(5.684341886080802e-14,0) translate(342.4147033691406,-50.400001525878906) scale(1) translate(-342.4147033691406,50.400001525878906) translate(24.76259994506836,10.4920654296875) scale(1.1704524755477905,1.3090660572052002) translate(-24.76259994506836,-10.4920654296875) translate(3.8300414085388184,3.2973406314849854) scale(0.9819573760032654,0.9734391570091248) translate(-3.8300414085388184,-3.2973406314849854) translate(3.9004151821136475,9.51029109954834) scale(1.0538098812103271,1.0727615356445312) translate(-3.9004151821136475,-9.51029109954834) ">
              <stop offset="0" style="stop-color:#FFFFFF;stop-opacity:0.4"/>
              <stop offset="0.78" style="stop-color:#FFFFFF;stop-opacity:0"/>
            </linearGradient>
            <polygon class="highlight" fill="url(#324b32a4-0a9f-4bbc-af49-912ba2e1d228)" points="119.62422943115234,-286.2313404083252 101.13658905029297,-286.2313404083252 78.3754653930664,-217.28428840637207 96.86307525634766,-217.28428840637207 " stroke-width="0" stroke-linejoin="miter" stroke-miterlimit="2" opacity="1" style="fill-rule: evenodd; stroke: rgb(31, 109, 227);" id="svg_8"/>
            <linearGradient id="5ab68bcc-86ba-44e2-b14f-9f7bb8816750" x1="0.7019545756042974" y1="0.9462525870646916" x2="0.01961033701679895" y2="0.03887502431636598" transform="translate(0,16.78321647644043) translate(-20.27971839904785,84.6153793334961) translate(-11.888111114501953,-4.195804119110107) translate(-244.75523376464844,-228.6713104248047) translate(5.684341886080802e-14,0) translate(342.4147033691406,-50.400001525878906) scale(1) translate(-342.4147033691406,50.400001525878906) translate(24.76259994506836,10.4920654296875) scale(1.1704524755477905,1.3090660572052002) translate(-24.76259994506836,-10.4920654296875) translate(3.8300414085388184,3.2973406314849854) scale(0.9819573760032654,0.9734391570091248) translate(-3.8300414085388184,-3.2973406314849854) translate(3.9004151821136475,9.51029109954834) scale(1.0538098812103271,1.0727615356445312) translate(-3.9004151821136475,-9.51029109954834) ">
              <stop offset="0" style="stop-color:#231F20;stop-opacity:0"/>
              <stop offset="0.3252" style="stop-color:#1E1A1B;stop-opacity:0.13006"/>
              <stop offset="0.724" style="stop-color:#0F0D0D;stop-opacity:0.28962"/>
              <stop offset="1" style="stop-color:#000000;stop-opacity:0.4"/>
            </linearGradient>
            <polygon class="highlight" fill="url(#5ab68bcc-86ba-44e2-b14f-9f7bb8816750)" points="143.7382049560547,-217.28428840637207 120.7024917602539,-286.2313709259033 119.62422943115234,-286.2313709259033 110.97174072265625,-260.0216236114502 125.25054931640625,-217.28428840637207 " stroke-width="0" stroke-linejoin="miter" stroke-miterlimit="2" opacity="1" style="stroke: rgb(31, 109, 227);" id="svg_9"/>
          </g>
          <g id="path10547" aria-label="C" transform="translate(0,293.7591857910156) " style="filter: url(#hue-rotate-filter-0); opacity: 0.9;">
            <polygon class="c1" points="195.17347717285156,-268.0879383087158 195.17347717285156,-286.2313709259033 163.1480712890625,-286.2311267852783 163.1480712890625,-286.23069953918457 145.46466064453125,-268.0876636505127 145.46466064453125,-235.18853950500488 163.1479949951172,-217.28425788879395 163.1479949951172,-217.0444507598877 195.1733856201172,-217.04471015930176 195.1733856201172,-235.1881275177002 163.14852905273438,-235.1878833770752 163.14852905273438,-268.08775520324707 " stroke-width="0" stroke-linejoin="miter" stroke-miterlimit="2" fill="#1f6de3" style="stroke: rgb(31, 109, 227);" id="svg_10"/>
            <linearGradient id="7b2f1853-c011-483d-8fdb-f3471c0ca7f8" x1="2.885382507945622e-7" y1="0.5" x2="1.0000002885382508" y2="0.5" transform="translate(0,16.78321647644043) translate(-20.27971839904785,84.6153793334961) translate(-11.888111114501953,-4.195804119110107) translate(-244.75523376464844,-228.6713104248047) translate(5.684341886080802e-14,0) translate(397.8063049316406,-50.400001525878906) scale(1) translate(-397.8063049316406,50.400001525878906) translate(24.76259994506836,10.4920654296875) scale(1.1704524755477905,1.3090660572052002) translate(-24.76259994506836,-10.4920654296875) translate(3.8300414085388184,3.2973406314849854) scale(0.9819573760032654,0.9734391570091248) translate(-3.8300414085388184,-3.2973406314849854) translate(3.9004151821136475,9.51029109954834) scale(1.0538098812103271,1.0727615356445312) translate(-3.9004151821136475,-9.51029109954834) ">
              <stop offset="0" style="stop-color:#000000;stop-opacity:0.4"/>
              <stop offset="0.276" style="stop-color:#0F0D0D;stop-opacity:0.28962"/>
              <stop offset="0.6748" style="stop-color:#1E1A1B;stop-opacity:0.13006"/>
              <stop offset="1" style="stop-color:#231F20;stop-opacity:0"/>
            </linearGradient>
            <path class="highlight" fill="url(#7b2f1853-c011-483d-8fdb-f3471c0ca7f8)" d="M163.1480818707009,-268.0877279589865 V-286.2311458093448 l32.02537940720962,-0.00024606286282873 V-268.0879876920083 L163.1480818707009,-268.0877279589865 zM195.1733764953111,-217.04470742681673 l0.000012111799914002418,-18.14341785035826 l-32.02537940720962,0.00024606286282873 l-0.000012111799914002418,18.143404180199216 L195.1733764953111,-217.04470742681673 z" stroke-width="0" stroke-linejoin="miter" stroke-miterlimit="2" opacity="1" style="stroke: rgb(31, 109, 227);" id="svg_11"/>
            <linearGradient id="8bbfa469-3827-44e1-8392-b44d18ee1c11" x1="0.500000261271651" y1="0.10370658899572593" x2="0.500000261271651" y2="0.9118093966005602" transform="translate(0,16.78321647644043) translate(-20.27971839904785,84.6153793334961) translate(-11.888111114501953,-4.195804119110107) translate(-244.75523376464844,-228.6713104248047) translate(5.684341886080802e-14,0) translate(397.8063049316406,-50.400001525878906) scale(1) translate(-397.8063049316406,50.400001525878906) translate(24.76259994506836,10.4920654296875) scale(1.1704524755477905,1.3090660572052002) translate(-24.76259994506836,-10.4920654296875) translate(3.8300414085388184,3.2973406314849854) scale(0.9819573760032654,0.9734391570091248) translate(-3.8300414085388184,-3.2973406314849854) translate(3.9004151821136475,9.51029109954834) scale(1.0538098812103271,1.0727615356445312) translate(-3.9004151821136475,-9.51029109954834) ">
              <stop offset="0.2235" style="stop-color:#231F20;stop-opacity:0"/>
              <stop offset="0.476" style="stop-color:#1E1A1B;stop-opacity:0.09755"/>
              <stop offset="0.7859" style="stop-color:#0F0D0D;stop-opacity:0.21727"/>
              <stop offset="1" style="stop-color:#000000;stop-opacity:0.3"/>
            </linearGradient>
            <polygon class="highlight" fill="url(#8bbfa469-3827-44e1-8392-b44d18ee1c11)" points="145.46466064453125,-235.18853950500488 163.14849853515625,-217.283784866333 163.14849853515625,-286.2310962677002 145.46466064453125,-268.0876636505127 " stroke-width="0" stroke-linejoin="miter" stroke-miterlimit="2" opacity="1" style="stroke: rgb(31, 109, 227);" id="svg_12"/>
            <linearGradient id="795335df-0583-4ba5-9b14-7da82301c245" x1="0.500000261271651" y1="0.10370658899572593" x2="0.500000261271651" y2="0.9118093966005602" transform="translate(0,16.78321647644043) translate(-20.27971839904785,84.6153793334961) translate(-11.888111114501953,-4.195804119110107) translate(-244.75523376464844,-228.6713104248047) translate(5.684341886080802e-14,0) translate(397.8063049316406,-50.400001525878906) scale(1) translate(-397.8063049316406,50.400001525878906) translate(24.76259994506836,10.4920654296875) scale(1.1704524755477905,1.3090660572052002) translate(-24.76259994506836,-10.4920654296875) translate(3.8300414085388184,3.2973406314849854) scale(0.9819573760032654,0.9734391570091248) translate(-3.8300414085388184,-3.2973406314849854) translate(3.9004151821136475,9.51029109954834) scale(1.0538098812103271,1.0727615356445312) translate(-3.9004151821136475,-9.51029109954834) ">
              <stop offset="0" style="stop-color:#FFFFFF;stop-opacity:0.5"/>
              <stop offset="0.012" style="stop-color:#FFFFFF;stop-opacity:0.49309"/>
              <stop offset="0.8693" style="stop-color:#FFFFFF;stop-opacity:0"/>
            </linearGradient>
            <polygon class="highlight" fill="url(#795335df-0583-4ba5-9b14-7da82301c245)" points="145.46466064453125,-235.18853950500488 163.14849853515625,-217.283784866333 163.14849853515625,-286.2310962677002 145.46466064453125,-268.0876636505127 " stroke-width="0" stroke-linejoin="miter" stroke-miterlimit="2" opacity="1" style="stroke: rgb(31, 109, 227);" id="svg_13"/>
          </g>
          <path id="path10549" style="font-style: normal; font-weight: normal; font-size: 72px; line-height: 1; font-family: &quot;Brandmark Sans 28&quot;; font-variant-ligatures: normal; text-align: center; text-anchor: middle; display: none;" d="m203.58950542090295,-211.03457614578332 h11.2494397601254 v-81.49602016887513 h-11.2494397601254 z" stroke-width="0" stroke-linejoin="miter" stroke-miterlimit="2" fill="#466ba6" stroke="#466ba6"/>
          <g id="path10551" aria-label="F" transform="translate(0,293.7591857910156) " style="filter: url(#hue-rotate-filter-0); opacity: 0.9;">
            <polygon class="c1" points="273.9698181152344,-268.0879383087158 273.9698181152344,-286.2313709259033 241.94456481933594,-286.2311267852783 241.94456481933594,-286.23054695129395 224.26123046875,-268.0879383087158 224.26123046875,-217.28361701965332 241.9450225830078,-217.28361701965332 241.9450225830078,-241.77900886535645 271.031494140625,-241.77925300598145 271.031494140625,-259.92259407043457 241.9450225830078,-259.9224109649658 241.9450225830078,-268.08772468566895 " stroke-width="0" stroke-linejoin="miter" stroke-miterlimit="2" fill="#1f6de3" style="stroke: rgb(31, 109, 227);" id="svg_14"/>
            <linearGradient id="005918af-8e2d-4568-bbbc-df26e6bc97f3" x1="-2.8853900008540754e-7" y1="0.5" x2="1" y2="0.5" transform="translate(0,16.78321647644043) translate(-20.27971839904785,84.6153793334961) translate(-11.888111114501953,-4.195804119110107) translate(-244.75523376464844,-228.6713104248047) translate(5.684341886080802e-14,0) translate(462.86395263671875,-50.400001525878906) scale(1) translate(-462.86395263671875,50.400001525878906) translate(24.76259994506836,10.4920654296875) scale(1.1704524755477905,1.3090660572052002) translate(-24.76259994506836,-10.4920654296875) translate(3.8300414085388184,3.2973406314849854) scale(0.9819573760032654,0.9734391570091248) translate(-3.8300414085388184,-3.2973406314849854) translate(3.9004151821136475,9.51029109954834) scale(1.0538098812103271,1.0727615356445312) translate(-3.9004151821136475,-9.51029109954834) ">
              <stop offset="0" style="stop-color:#000000;stop-opacity:0.4"/>
              <stop offset="0.276" style="stop-color:#0F0D0D;stop-opacity:0.28962"/>
              <stop offset="0.6748" style="stop-color:#1E1A1B;stop-opacity:0.13006"/>
              <stop offset="1" style="stop-color:#231F20;stop-opacity:0"/>
            </linearGradient>
            <path class="highlight" fill="url(#005918af-8e2d-4568-bbbc-df26e6bc97f3)" d="M241.94479622057548,-241.7789539977142 V-259.9223581779134 l29.086717617675056,-0.00024606286282873 l-0.000012111799914002418,18.14341785035826 L241.94479622057548,-241.7789539977142 zM273.96994550358664,-268.08794061072575 V-286.2313584610841 l-32.02537940720962,0.00024606286282873 v18.143404180199216 L273.96994550358664,-268.08794061072575 z" stroke-width="0" stroke-linejoin="miter" stroke-miterlimit="2" opacity="1" style="stroke: rgb(31, 109, 227);" id="svg_15"/>
            <linearGradient id="547c3ca8-3e7a-43d4-b62e-afe9f6a35101" x1="0.500000261271651" y1="1" x2="0.500000261271651" y2="0" transform="translate(0,16.78321647644043) translate(-20.27971839904785,84.6153793334961) translate(-11.888111114501953,-4.195804119110107) translate(-244.75523376464844,-228.6713104248047) translate(5.684341886080802e-14,0) translate(462.86395263671875,-50.400001525878906) scale(1) translate(-462.86395263671875,50.400001525878906) translate(24.76259994506836,10.4920654296875) scale(1.1704524755477905,1.3090660572052002) translate(-24.76259994506836,-10.4920654296875) translate(3.8300414085388184,3.2973406314849854) scale(0.9819573760032654,0.9734391570091248) translate(-3.8300414085388184,-3.2973406314849854) translate(3.9004151821136475,9.51029109954834) scale(1.0538098812103271,1.0727615356445312) translate(-3.9004151821136475,-9.51029109954834) ">
              <stop offset="0" style="stop-color:#000000;stop-opacity:0.3"/>
              <stop offset="0.2141" style="stop-color:#0F0D0D;stop-opacity:0.21727"/>
              <stop offset="0.524" style="stop-color:#1E1A1B;stop-opacity:0.09755"/>
              <stop offset="0.7765" style="stop-color:#231F20;stop-opacity:0"/>
            </linearGradient>
            <polygon class="highlight" fill="url(#547c3ca8-3e7a-43d4-b62e-afe9f6a35101)" points="224.2611541748047,-217.28361701965332 241.9449920654297,-217.28361701965332 241.9449920654297,-286.23091316223145 224.2611541748047,-268.0879383087158 " stroke-width="0" stroke-linejoin="miter" stroke-miterlimit="2" opacity="1" style="stroke: rgb(31, 109, 227);" id="svg_16"/>
            <linearGradient id="87d28520-904c-4f05-9f5e-9de1c757f5dd" x1="0.500000261271651" y1="0.013288416899934123" x2="0.500000261271651" y2="0.974950214006031" transform="translate(0,16.78321647644043) translate(-20.27971839904785,84.6153793334961) translate(-11.888111114501953,-4.195804119110107) translate(-244.75523376464844,-228.6713104248047) translate(5.684341886080802e-14,0) translate(462.86395263671875,-50.400001525878906) scale(1) translate(-462.86395263671875,50.400001525878906) translate(24.76259994506836,10.4920654296875) scale(1.1704524755477905,1.3090660572052002) translate(-24.76259994506836,-10.4920654296875) translate(3.8300414085388184,3.2973406314849854) scale(0.9819573760032654,0.9734391570091248) translate(-3.8300414085388184,-3.2973406314849854) translate(3.9004151821136475,9.51029109954834) scale(1.0538098812103271,1.0727615356445312) translate(-3.9004151821136475,-9.51029109954834) ">
              <stop offset="0" style="stop-color:#FFFFFF;stop-opacity:0.5"/>
              <stop offset="0.0111" style="stop-color:#FFFFFF;stop-opacity:0.49309"/>
              <stop offset="0.8033" style="stop-color:#FFFFFF;stop-opacity:0"/>
            </linearGradient>
            <polygon class="highlight" fill="url(#87d28520-904c-4f05-9f5e-9de1c757f5dd)" points="224.2611541748047,-217.28361701965332 241.9449920654297,-217.28361701965332 241.9449920654297,-286.23091316223145 224.2611541748047,-268.0879383087158 " stroke-width="0" stroke-linejoin="miter" stroke-miterlimit="2" opacity="1" style="stroke: rgb(31, 109, 227);" id="svg_17"/>
          </g>
          <g id="path10553" aria-label="E" transform="translate(0,293.7591857910156) " style="filter: url(#hue-rotate-filter-0); opacity: 0.9;">
            <polygon class="c1" points="329.5575866699219,-268.0879383087158 329.5575866699219,-286.2313709259033 297.53228759765625,-286.2311267852783 297.53228759765625,-286.23069953918457 279.848876953125,-268.0876636505127 279.848876953125,-235.18853950500488 297.5321350097656,-217.28425788879395 297.5321350097656,-217.283784866333 297.5327453613281,-217.283784866333 297.5327453613281,-217.283784866333 297.5327453613281,-217.283784866333 329.5575256347656,-217.28399848937988 329.5575256347656,-235.42741584777832 297.5327453613281,-235.42717170715332 297.5327453613281,-243.59297370910645 326.6192932128906,-243.59321784973145 326.6192932128906,-261.7366199493408 297.5327453613281,-261.7363758087158 297.5327453613281,-268.08775520324707 " stroke-width="0" stroke-linejoin="miter" stroke-miterlimit="2" fill="#1f6de3" style="stroke: rgb(31, 109, 227);" id="svg_18"/>
            <linearGradient id="17628a57-199a-4aee-ac8a-33d5181d04fb" x1="2.8853816754026407e-7" y1="0.49999984873292647" x2="1" y2="0.49999984873292647" transform="translate(0,16.78321647644043) translate(-20.27971839904785,84.6153793334961) translate(-11.888111114501953,-4.195804119110107) translate(-244.75523376464844,-228.6713104248047) translate(5.684341886080802e-14,0) translate(508.7594299316406,-50.400001525878906) scale(1) translate(-508.7594299316406,50.400001525878906) translate(24.76259994506836,10.4920654296875) scale(1.1704524755477905,1.3090660572052002) translate(-24.76259994506836,-10.4920654296875) translate(3.8300414085388184,3.2973406314849854) scale(0.9819573760032654,0.9734391570091248) translate(-3.8300414085388184,-3.2973406314849854) translate(3.9004151821136475,9.51029109954834) scale(1.0538098812103271,1.0727615356445312) translate(-3.9004151821136475,-9.51029109954834) ">
              <stop offset="0" style="stop-color:#000000;stop-opacity:0.4"/>
              <stop offset="0.276" style="stop-color:#0F0D0D;stop-opacity:0.28962"/>
              <stop offset="0.6748" style="stop-color:#1E1A1B;stop-opacity:0.13006"/>
              <stop offset="1" style="stop-color:#231F20;stop-opacity:0"/>
            </linearGradient>
            <path class="highlight" fill="url(#17628a57-199a-4aee-ac8a-33d5181d04fb)" d="M297.5325048664287,-243.59294916345215 l0.000012111799914002418,-18.143404180199216 l29.086717617675056,-0.00024606286282873 v18.14341785035826 L297.5325048664287,-243.59294916345215 zM329.55766626124,-268.0879876920083 V-286.2313918722076 l-32.02537940720962,0.00024606286282873 v18.14341785035826 L329.55766626124,-268.0879876920083 zM329.55758147864054,-217.28401723107677 l0.000012111799914002418,-18.14341785035826 l-32.02537940720962,0.00024606286282873 l-0.000012111799914002418,18.143404180199216 L329.55758147864054,-217.28401723107677 z" stroke-width="0" stroke-linejoin="miter" stroke-miterlimit="2" opacity="1" style="stroke: rgb(31, 109, 227);" id="svg_19"/>
            <linearGradient id="95a27dfd-090d-4b12-b87f-a29adce71fa7" x1="0.500000261271651" y1="1" x2="0.500000261271651" y2="0" transform="translate(0,16.78321647644043) translate(-20.27971839904785,84.6153793334961) translate(-11.888111114501953,-4.195804119110107) translate(-244.75523376464844,-228.6713104248047) translate(5.684341886080802e-14,0) translate(508.7594299316406,-50.400001525878906) scale(1) translate(-508.7594299316406,50.400001525878906) translate(24.76259994506836,10.4920654296875) scale(1.1704524755477905,1.3090660572052002) translate(-24.76259994506836,-10.4920654296875) translate(3.8300414085388184,3.2973406314849854) scale(0.9819573760032654,0.9734391570091248) translate(-3.8300414085388184,-3.2973406314849854) translate(3.9004151821136475,9.51029109954834) scale(1.0538098812103271,1.0727615356445312) translate(-3.9004151821136475,-9.51029109954834) ">
              <stop offset="0" style="stop-color:#000000;stop-opacity:0.3"/>
              <stop offset="0.2141" style="stop-color:#0F0D0D;stop-opacity:0.21727"/>
              <stop offset="0.524" style="stop-color:#1E1A1B;stop-opacity:0.09755"/>
              <stop offset="0.7765" style="stop-color:#231F20;stop-opacity:0"/>
            </linearGradient>
            <polygon class="highlight" fill="url(#95a27dfd-090d-4b12-b87f-a29adce71fa7)" points="279.848876953125,-235.18853950500488 297.53265380859375,-217.283784866333 297.53265380859375,-286.2310962677002 279.848876953125,-268.0876636505127 " stroke-width="0" stroke-linejoin="miter" stroke-miterlimit="2" opacity="1" style="stroke: rgb(31, 109, 227);" id="svg_20"/>
            <linearGradient id="1c1caec4-b2a0-41ad-91a9-2e9d4ee74a5c" x1="0.500000261271651" y1="1" x2="0.500000261271651" y2="0" transform="translate(0,16.78321647644043) translate(-20.27971839904785,84.6153793334961) translate(-11.888111114501953,-4.195804119110107) translate(-244.75523376464844,-228.6713104248047) translate(5.684341886080802e-14,0) translate(508.7594299316406,-50.400001525878906) scale(1) translate(-508.7594299316406,50.400001525878906) translate(24.76259994506836,10.4920654296875) scale(1.1704524755477905,1.3090660572052002) translate(-24.76259994506836,-10.4920654296875) translate(3.8300414085388184,3.2973406314849854) scale(0.9819573760032654,0.9734391570091248) translate(-3.8300414085388184,-3.2973406314849854) translate(3.9004151821136475,9.51029109954834) scale(1.0538098812103271,1.0727615356445312) translate(-3.9004151821136475,-9.51029109954834) ">
              <stop offset="0.2336" style="stop-color:#FFFFFF;stop-opacity:0"/>
              <stop offset="0.9894" style="stop-color:#FFFFFF;stop-opacity:0.49309"/>
              <stop offset="1" style="stop-color:#FFFFFF;stop-opacity:0.5"/>
            </linearGradient>
            <polygon class="highlight" fill="url(#1c1caec4-b2a0-41ad-91a9-2e9d4ee74a5c)" points="279.848876953125,-235.18853950500488 297.53265380859375,-217.283784866333 297.53265380859375,-286.2310962677002 279.848876953125,-268.0876636505127 " stroke-width="0" stroke-linejoin="miter" stroke-miterlimit="2" opacity="1" style="stroke: rgb(31, 109, 227);" id="svg_21"/>
          </g>
          <g id="path10555" aria-label="L" transform="translate(0,293.7591857910156) " style="filter: url(#hue-rotate-filter-0); opacity: 0.9;">
            <polygon class="c1" points="387.8322448730469,-235.42883491516113 355.8072509765625,-235.42859077453613 355.8072509765625,-286.2313709259033 338.1236572265625,-286.2313709259033 338.1236572265625,-234.29478645324707 355.8072509765625,-217.28399848937988 355.8072509765625,-217.2851734161377 387.8322448730469,-217.28543281555176 " stroke-width="0" stroke-linejoin="miter" stroke-miterlimit="2" fill="#1f6de3" style="stroke: rgb(31, 109, 227);" id="svg_22"/>
            <linearGradient id="657ee4a5-c528-44ea-b13e-392ffecb3ed3" x1="0" y1="0.5000002874146307" x2="1" y2="0.5000002874146307" transform="translate(0,16.78321647644043) translate(-20.27971839904785,84.6153793334961) translate(-11.888111114501953,-4.195804119110107) translate(-244.75523376464844,-228.6713104248047) translate(5.684341886080802e-14,0) translate(556.8734130859375,-50.400001525878906) scale(1) translate(-556.8734130859375,50.400001525878906) translate(24.76259994506836,10.4920654296875) scale(1.1704524755477905,1.3090660572052002) translate(-24.76259994506836,-10.4920654296875) translate(3.8300414085388184,3.2973406314849854) scale(0.9819573760032654,0.9734391570091248) translate(-3.8300414085388184,-3.2973406314849854) translate(3.9004151821136475,9.51029109954834) scale(1.0538098812103271,1.0727615356445312) translate(-3.9004151821136475,-9.51029109954834) ">
              <stop offset="0" style="stop-color:#000000;stop-opacity:0.4"/>
              <stop offset="0.276" style="stop-color:#0F0D0D;stop-opacity:0.28962"/>
              <stop offset="0.6748" style="stop-color:#1E1A1B;stop-opacity:0.13006"/>
              <stop offset="1" style="stop-color:#231F20;stop-opacity:0"/>
            </linearGradient>
            <polygon class="highlight" fill="url(#657ee4a5-c528-44ea-b13e-392ffecb3ed3)" points="355.80694580078125,-217.2851734161377 355.80694580078125,-235.42859077453613 387.83233642578125,-235.42883491516113 387.8322448730469,-217.28543281555176 " stroke-width="0" stroke-linejoin="miter" stroke-miterlimit="2" opacity="1" style="stroke: rgb(31, 109, 227);" id="svg_23"/>
            <linearGradient id="f34996a9-2754-47a3-8b02-71c57aacb456" x1="0.500000261271651" y1="0.014043696711212495" x2="0.500000261271651" y2="1.0035346732125259" transform="translate(0,16.78321647644043) translate(-20.27971839904785,84.6153793334961) translate(-11.888111114501953,-4.195804119110107) translate(-244.75523376464844,-228.6713104248047) translate(5.684341886080802e-14,0) translate(556.8734130859375,-50.400001525878906) scale(1) translate(-556.8734130859375,50.400001525878906) translate(24.76259994506836,10.4920654296875) scale(1.1704524755477905,1.3090660572052002) translate(-24.76259994506836,-10.4920654296875) translate(3.8300414085388184,3.2973406314849854) scale(0.9819573760032654,0.9734391570091248) translate(-3.8300414085388184,-3.2973406314849854) translate(3.9004151821136475,9.51029109954834) scale(1.0538098812103271,1.0727615356445312) translate(-3.9004151821136475,-9.51029109954834) ">
              <stop offset="0.2235" style="stop-color:#231F20;stop-opacity:0"/>
              <stop offset="0.476" style="stop-color:#1E1A1B;stop-opacity:0.09755"/>
              <stop offset="0.7859" style="stop-color:#0F0D0D;stop-opacity:0.21727"/>
              <stop offset="1" style="stop-color:#000000;stop-opacity:0.3"/>
            </linearGradient>
            <polygon class="highlight" fill="url(#f34996a9-2754-47a3-8b02-71c57aacb456)" points="338.12353515625,-234.29471015930176 355.8074035644531,-217.28399848937988 355.8074035644531,-286.2313404083252 338.12353515625,-286.2313404083252 " stroke-width="0" stroke-linejoin="miter" stroke-miterlimit="2" opacity="1" style="stroke: rgb(31, 109, 227);" id="svg_24"/>
            <linearGradient id="81391cba-d168-4b90-9b87-e5d01e8188f7" x1="0.500000261271651" y1="0.014043696711212495" x2="0.500000261271651" y2="1.0035346732125259" transform="translate(0,16.78321647644043) translate(-20.27971839904785,84.6153793334961) translate(-11.888111114501953,-4.195804119110107) translate(-244.75523376464844,-228.6713104248047) translate(5.684341886080802e-14,0) translate(556.8734130859375,-50.400001525878906) scale(1) translate(-556.8734130859375,50.400001525878906) translate(24.76259994506836,10.4920654296875) scale(1.1704524755477905,1.3090660572052002) translate(-24.76259994506836,-10.4920654296875) translate(3.8300414085388184,3.2973406314849854) scale(0.9819573760032654,0.9734391570091248) translate(-3.8300414085388184,-3.2973406314849854) translate(3.9004151821136475,9.51029109954834) scale(1.0538098812103271,1.0727615356445312) translate(-3.9004151821136475,-9.51029109954834) ">
              <stop offset="0" style="stop-color:#FFFFFF;stop-opacity:0.5"/>
              <stop offset="0.0116" style="stop-color:#FFFFFF;stop-opacity:0.49309"/>
              <stop offset="0.84" style="stop-color:#FFFFFF;stop-opacity:0"/>
            </linearGradient>
            <polygon class="highlight" fill="url(#81391cba-d168-4b90-9b87-e5d01e8188f7)" points="338.12353515625,-234.29471015930176 355.8074035644531,-217.28399848937988 355.8074035644531,-286.2313404083252 338.12353515625,-286.2313404083252 " stroke-width="0" stroke-linejoin="miter" stroke-miterlimit="2" opacity="1" style="stroke: rgb(31, 109, 227);" id="svg_25"/>
            <polygon class="highlight" points="110.512 -213.871 114.559 -252.591 129.721 -247.53 125.335 -218.259" stroke-width="0" stroke-linejoin="miter" stroke-miterlimit="2" opacity="1" style="stroke: rgb(31, 109, 227); fill: rgb(31, 149, 228); fill-opacity: 0.83;" id="polygon-1" transform="matrix(0, -1, 1, 0, 353.8535, -115.981506)"/>
          </g>
          <g id="path10557" aria-label="D" transform="translate(0,293.7591857910156) " style="filter: url(#hue-rotate-filter-0); opacity: 0.9;">
            <path class="c1" d="M422.13890957152796,-286.2305505066252 v0.0025016391054254188 l-0.0002180123984520434,-0.003335518807233897 l-11.233282619040123,0.00024606286282873 l-0.0008114905942381616,0.012180111710022106 v-0.011934048847193401 L393.22080032045574,-268.0874744102432 v50.803943120613525 h17.6837850172395 v-0.020026783002449377 l11.234312122032811,-0.00024606286282873 v0.0009979216103609607 c16.900333239802258,0 30.649866514576203,-15.259615778641738 30.649866514576203,-34.3343405543296 C452.7887639743042,-270.71195356485623 439.03924281133015,-286.2305505066252 422.13890957152796,-286.2305505066252 zM422.13890957152796,-235.44647012710558 l-0.00007267079948401452,-0.0007518587475322303 l-11.234239451233327,0.00024606286282873 V-268.087720473106 l11.234312122032811,-0.00024606286282873 v0.0009979216103609607 c8.036482037938422,0 14.574601196715696,7.379329565120268 14.574601196715696,16.44983551630335 S430.1753916094663,-235.44647012710558 422.13890957152796,-235.44647012710558 z" stroke-width="0" stroke-linejoin="miter" stroke-miterlimit="2" fill="#1f6de3" style="stroke: rgb(31, 109, 227);" id="svg_26"/>
            <linearGradient id="6a9ec051-d408-4313-a8df-fd8bc0fed8b6" x1="-4.4124317617428045e-7" y1="0.5" x2="0.9999995587568238" y2="0.5" transform="translate(0,16.78321647644043) translate(-20.27971839904785,84.6153793334961) translate(-11.888111114501953,-4.195804119110107) translate(-244.75523376464844,-228.6713104248047) translate(5.684341886080802e-14,0) translate(602.3639526367188,-50.400001525878906) scale(1) translate(-602.3639526367188,50.400001525878906) translate(24.76259994506836,10.4920654296875) scale(1.1704524755477905,1.3090660572052002) translate(-24.76259994506836,-10.4920654296875) translate(3.8300414085388184,3.2973406314849854) scale(0.9819573760032654,0.9734391570091248) translate(-3.8300414085388184,-3.2973406314849854) translate(3.9004151821136475,9.51029109954834) scale(1.0538098812103271,1.0727615356445312) translate(-3.9004151821136475,-9.51029109954834) ">
              <stop offset="0" style="stop-color:#000000;stop-opacity:0.4"/>
              <stop offset="0.276" style="stop-color:#0F0D0D;stop-opacity:0.28962"/>
              <stop offset="0.6748" style="stop-color:#1E1A1B;stop-opacity:0.13006"/>
              <stop offset="1" style="stop-color:#231F20;stop-opacity:0"/>
            </linearGradient>
            <path class="highlight" fill="url(#6a9ec051-d408-4313-a8df-fd8bc0fed8b6)" d="M422.13890957152796,-286.2305505066252 v0.0025016391054254188 l-0.0002180123984520434,-0.003335518807233897 l-11.233282619040123,0.00024606286282873 l0.00014534159896802877,18.14341785035826 l11.233355289839604,-0.00024606286282873 v0.0009979216103609607 c8.036482037938422,0 14.574601196715696,7.379329565120268 14.574601196715696,16.44983551630335 s-6.53810704697736,16.19067664110851 -14.574601196715696,16.19067664110851 l-0.00007267079948401452,-0.0007518587475322303 l-11.234312122032811,0.00024606286282873 l0.00007267079948401452,18.14341785035826 l11.234312122032811,-0.00024606286282873 v0.0009979216103609607 c16.900333239802258,0 30.649866514576203,-15.259615778641738 30.649866514576203,-34.3343405543296 C452.7887639743042,-270.71195356485623 439.03924281133015,-286.2305505066252 422.13890957152796,-286.2305505066252 z" stroke-width="0" stroke-linejoin="miter" stroke-miterlimit="2" opacity="1" style="stroke: rgb(31, 109, 227);" id="svg_27"/>
            <linearGradient id="7e1e003f-8481-4dd2-863a-1c6125d77c48" x1="0.499999738728076" y1="1" x2="0.499999738728076" y2="0" transform="translate(0,16.78321647644043) translate(-20.27971839904785,84.6153793334961) translate(-11.888111114501953,-4.195804119110107) translate(-244.75523376464844,-228.6713104248047) translate(5.684341886080802e-14,0) translate(602.3639526367188,-50.400001525878906) scale(1) translate(-602.3639526367188,50.400001525878906) translate(24.76259994506836,10.4920654296875) scale(1.1704524755477905,1.3090660572052002) translate(-24.76259994506836,-10.4920654296875) translate(3.8300414085388184,3.2973406314849854) scale(0.9819573760032654,0.9734391570091248) translate(-3.8300414085388184,-3.2973406314849854) translate(3.9004151821136475,9.51029109954834) scale(1.0538098812103271,1.0727615356445312) translate(-3.9004151821136475,-9.51029109954834) ">
              <stop offset="0" style="stop-color:#000000;stop-opacity:0.3"/>
              <stop offset="0.2141" style="stop-color:#0F0D0D;stop-opacity:0.21727"/>
              <stop offset="0.524" style="stop-color:#1E1A1B;stop-opacity:0.09755"/>
              <stop offset="0.7765" style="stop-color:#231F20;stop-opacity:0"/>
            </linearGradient>
            <polygon class="highlight" fill="url(#7e1e003f-8481-4dd2-863a-1c6125d77c48)" points="393.2207336425781,-217.283540725708 410.90460205078125,-217.283540725708 410.90460205078125,-286.23082160949707 393.2207336425781,-268.08748054504395 " stroke-width="0" stroke-linejoin="miter" stroke-miterlimit="2" opacity="1" style="stroke: rgb(31, 109, 227);" id="svg_28"/>
            <linearGradient id="571a80ff-3fba-4770-a2c8-df0cc3904d5a" x1="0.499999738728076" y1="1" x2="0.499999738728076" y2="0" transform="translate(0,16.78321647644043) translate(-20.27971839904785,84.6153793334961) translate(-11.888111114501953,-4.195804119110107) translate(-244.75523376464844,-228.6713104248047) translate(5.684341886080802e-14,0) translate(602.3639526367188,-50.400001525878906) scale(1) translate(-602.3639526367188,50.400001525878906) translate(24.76259994506836,10.4920654296875) scale(1.1704524755477905,1.3090660572052002) translate(-24.76259994506836,-10.4920654296875) translate(3.8300414085388184,3.2973406314849854) scale(0.9819573760032654,0.9734391570091248) translate(-3.8300414085388184,-3.2973406314849854) translate(3.9004151821136475,9.51029109954834) scale(1.0538098812103271,1.0727615356445312) translate(-3.9004151821136475,-9.51029109954834) ">
              <stop offset="0.1874" style="stop-color:#FFFFFF;stop-opacity:0"/>
              <stop offset="0.9888" style="stop-color:#FFFFFF;stop-opacity:0.49309"/>
              <stop offset="1" style="stop-color:#FFFFFF;stop-opacity:0.5"/>
            </linearGradient>
            <polygon class="highlight" fill="url(#571a80ff-3fba-4770-a2c8-df0cc3904d5a)" points="393.2207336425781,-217.283540725708 410.90460205078125,-217.283540725708 410.90460205078125,-286.23082160949707 393.2207336425781,-268.08748054504395 " stroke-width="0" stroke-linejoin="miter" stroke-miterlimit="2" opacity="1" style="stroke: rgb(31, 109, 227);" id="svg_29"/>
            <polygon class="highlight" points="512.98 -216.802 530.664 -216.802 530.664 -285.749 512.98 -267.606" stroke-width="0" stroke-linejoin="miter" stroke-miterlimit="2" opacity="1" style="stroke: rgb(31, 109, 227); paint-order: stroke markers; fill: rgb(16, 118, 190);" id="polygon-2"/>
          </g>
          <g id="path10559" aria-label="E" transform="translate(0,293.7591857910156) " style="filter: url(#hue-rotate-filter-0); opacity: 0.9;">
            <polygon class="c1" points="508.22564697265625,-268.0879383087158 508.22564697265625,-286.2313709259033 476.2002868652344,-286.2311267852783 476.2002868652344,-286.23069953918457 458.516845703125,-268.0876636505127 458.516845703125,-235.18853950500488 476.2001953125,-217.28425788879395 476.2001953125,-217.283784866333 476.20074462890625,-217.283784866333 476.20074462890625,-217.283784866333 476.20074462890625,-217.283784866333 508.2255859375,-217.28399848937988 508.2255859375,-235.42741584777832 476.20074462890625,-235.42717170715332 476.20074462890625,-243.59297370910645 505.2872009277344,-243.59321784973145 505.2872009277344,-261.7366199493408 476.20074462890625,-261.7363758087158 476.20074462890625,-268.08775520324707 " stroke-width="0" stroke-linejoin="miter" stroke-miterlimit="2" fill="#1f6de3" style="stroke: rgb(31, 109, 227);" id="svg_30"/>
            <linearGradient id="b64a4145-906e-4c60-adfe-f5e6d51b97f3" x1="2.8853816754026407e-7" y1="0.49999984873292647" x2="1" y2="0.49999984873292647" transform="translate(0,16.78321647644043) translate(-20.27971839904785,84.6153793334961) translate(-11.888111114501953,-4.195804119110107) translate(-244.75523376464844,-228.6713104248047) translate(5.684341886080802e-14,0) translate(656.2750854492188,-50.400001525878906) scale(1) translate(-656.2750854492188,50.400001525878906) translate(24.76259994506836,10.4920654296875) scale(1.1704524755477905,1.3090660572052002) translate(-24.76259994506836,-10.4920654296875) translate(3.8300414085388184,3.2973406314849854) scale(0.9819573760032654,0.9734391570091248) translate(-3.8300414085388184,-3.2973406314849854) translate(3.9004151821136475,9.51029109954834) scale(1.0538098812103271,1.0727615356445312) translate(-3.9004151821136475,-9.51029109954834) ">
              <stop offset="0" style="stop-color:#000000;stop-opacity:0.4"/>
              <stop offset="0.276" style="stop-color:#0F0D0D;stop-opacity:0.28962"/>
              <stop offset="0.6748" style="stop-color:#1E1A1B;stop-opacity:0.13006"/>
              <stop offset="1" style="stop-color:#231F20;stop-opacity:0"/>
            </linearGradient>
            <path class="highlight" fill="url(#b64a4145-906e-4c60-adfe-f5e6d51b97f3)" d="M476.20051524760925,-243.59294916345215 l0.000012111799914002418,-18.143404180199216 l29.086717617675056,-0.00024606286282873 v18.14341785035826 L476.20051524760925,-243.59294916345215 zM508.22567664242047,-268.0879876920083 V-286.2313918722076 l-32.02537940720962,0.00024606286282873 v18.14341785035826 L508.22567664242047,-268.0879876920083 zM508.2255918598212,-217.28401723107677 l0.000012111799914002418,-18.14341785035826 l-32.02537940720962,0.00024606286282873 l-0.000012111799914002418,18.143404180199216 L508.2255918598212,-217.28401723107677 z" stroke-width="0" stroke-linejoin="miter" stroke-miterlimit="2" opacity="1" style="stroke: rgb(31, 109, 227);" id="svg_31"/>
            <linearGradient id="e530313f-5652-44c3-ba4f-4bbfb4ec2a68" x1="0.500000261271651" y1="1" x2="0.500000261271651" y2="0" transform="translate(0,16.78321647644043) translate(-20.27971839904785,84.6153793334961) translate(-11.888111114501953,-4.195804119110107) translate(-244.75523376464844,-228.6713104248047) translate(5.684341886080802e-14,0) translate(656.2750854492188,-50.400001525878906) scale(1) translate(-656.2750854492188,50.400001525878906) translate(24.76259994506836,10.4920654296875) scale(1.1704524755477905,1.3090660572052002) translate(-24.76259994506836,-10.4920654296875) translate(3.8300414085388184,3.2973406314849854) scale(0.9819573760032654,0.9734391570091248) translate(-3.8300414085388184,-3.2973406314849854) translate(3.9004151821136475,9.51029109954834) scale(1.0538098812103271,1.0727615356445312) translate(-3.9004151821136475,-9.51029109954834) ">
              <stop offset="0" style="stop-color:#000000;stop-opacity:0.3"/>
              <stop offset="0.2141" style="stop-color:#0F0D0D;stop-opacity:0.21727"/>
              <stop offset="0.524" style="stop-color:#1E1A1B;stop-opacity:0.09755"/>
              <stop offset="0.7765" style="stop-color:#231F20;stop-opacity:0"/>
            </linearGradient>
            <polygon class="highlight" fill="url(#e530313f-5652-44c3-ba4f-4bbfb4ec2a68)" points="458.516845703125,-235.18853950500488 476.20074462890625,-217.283784866333 476.20074462890625,-286.2310962677002 458.516845703125,-268.0876636505127 " stroke-width="0" stroke-linejoin="miter" stroke-miterlimit="2" opacity="1" style="stroke: rgb(31, 109, 227);" id="svg_32"/>
            <linearGradient id="97457f0d-27f9-4a63-877f-add5712c9e0f" x1="0.500000261271651" y1="1" x2="0.500000261271651" y2="0" transform="translate(0,16.78321647644043) translate(-20.27971839904785,84.6153793334961) translate(-11.888111114501953,-4.195804119110107) translate(-244.75523376464844,-228.6713104248047) translate(5.684341886080802e-14,0) translate(656.2750854492188,-50.400001525878906) scale(1) translate(-656.2750854492188,50.400001525878906) translate(24.76259994506836,10.4920654296875) scale(1.1704524755477905,1.3090660572052002) translate(-24.76259994506836,-10.4920654296875) translate(3.8300414085388184,3.2973406314849854) scale(0.9819573760032654,0.9734391570091248) translate(-3.8300414085388184,-3.2973406314849854) translate(3.9004151821136475,9.51029109954834) scale(1.0538098812103271,1.0727615356445312) translate(-3.9004151821136475,-9.51029109954834) ">
              <stop offset="0.2336" style="stop-color:#FFFFFF;stop-opacity:0"/>
              <stop offset="0.9894" style="stop-color:#FFFFFF;stop-opacity:0.49309"/>
              <stop offset="1" style="stop-color:#FFFFFF;stop-opacity:0.5"/>
            </linearGradient>
            <polygon class="highlight" fill="url(#97457f0d-27f9-4a63-877f-add5712c9e0f)" points="458.516845703125,-235.18853950500488 476.20074462890625,-217.283784866333 476.20074462890625,-286.2310962677002 458.516845703125,-268.0876636505127 " stroke-width="0" stroke-linejoin="miter" stroke-miterlimit="2" opacity="1" style="stroke: rgb(31, 109, 227);" id="svg_33"/>
          </g>
          <g id="path10561" aria-label="R" transform="translate(0,293.7591857910156) " style="filter: url(#hue-rotate-filter-0); opacity: 0.9;">
            <path class="c1" d="M 565.98 -260.59 L 565.98 -260.59 C 565.98 -274.751 555.809 -286.231 543.262 -286.231 L 530.005 -285.557 L 513.478 -268.088 L 543.262 -268.088 C 546.931 -268.088 549.905 -264.731 549.905 -260.59 L 549.905 -260.59 C 549.905 -256.449 546.932 -253.093 543.263 -253.092 L 543.263 -253.094 L 533.573 -253.093 L 527.143 -234.95 L 540.081 -217.284 L 562.588 -217.284 L 547.85 -235.473 C 558.198 -237.868 565.98 -248.203 565.98 -260.59 Z" stroke-width="0" stroke-linejoin="miter" stroke-miterlimit="2" fill="#1f6de3" style="stroke: rgb(31, 109, 227);" id="svg_34"/>
            <linearGradient id="51a906d3-ca43-4686-90aa-a9875e8e208e" x1="0.11491556257249141" y1="0.2238439555523453" x2="0.6595194378016158" y2="0.9726757366972755" transform="translate(0,16.78321647644043) translate(-20.27971839904785,84.6153793334961) translate(-11.888111114501953,-4.195804119110107) translate(-244.75523376464844,-228.6713104248047) translate(5.684341886080802e-14,0) translate(701.653076171875,-50.400001525878906) scale(1) translate(-701.653076171875,50.400001525878906) translate(24.76259994506836,10.4920654296875) scale(1.1704524755477905,1.3090660572052002) translate(-24.76259994506836,-10.4920654296875) translate(3.8300414085388184,3.2973406314849854) scale(0.9819573760032654,0.9734391570091248) translate(-3.8300414085388184,-3.2973406314849854) translate(3.9004151821136475,9.51029109954834) scale(1.0538098812103271,1.0727615356445312) translate(-3.9004151821136475,-9.51029109954834) ">
              <stop offset="0" style="stop-color:#FFFFFF;stop-opacity:0.5"/>
              <stop offset="0.0138" style="stop-color:#FFFFFF;stop-opacity:0.49309"/>
              <stop offset="1" style="stop-color:#FFFFFF;stop-opacity:0"/>
            </linearGradient>
            <polygon class="highlight" fill="url(#51a906d3-ca43-4686-90aa-a9875e8e208e)" points="540.0814208984375,-217.28428840637207 562.5877685546875,-217.28428840637207 533.5728759765625,-253.0932788848877 527.142822265625,-234.9498462677002 " stroke-width="0" stroke-linejoin="miter" stroke-miterlimit="2" opacity="1" style="stroke: rgb(31, 109, 227);" id="svg_35"/>
            <linearGradient id="ff6726df-1b88-4daa-a953-6d3b32b4154c" x1="0.5" y1="0.9999995932525478" x2="0.5" y2="0" transform="translate(0,16.78321647644043) translate(-20.27971839904785,84.6153793334961) translate(-11.888111114501953,-4.195804119110107) translate(-244.75523376464844,-228.6713104248047) translate(5.684341886080802e-14,0) translate(701.653076171875,-50.400001525878906) scale(1) translate(-701.653076171875,50.400001525878906) translate(24.76259994506836,10.4920654296875) scale(1.1704524755477905,1.3090660572052002) translate(-24.76259994506836,-10.4920654296875) translate(3.8300414085388184,3.2973406314849854) scale(0.9819573760032654,0.9734391570091248) translate(-3.8300414085388184,-3.2973406314849854) translate(3.9004151821136475,9.51029109954834) scale(1.0538098812103271,1.0727615356445312) translate(-3.9004151821136475,-9.51029109954834) ">
              <stop offset="0" style="stop-color:#FFFFFF;stop-opacity:0"/>
              <stop offset="0.9862" style="stop-color:#FFFFFF;stop-opacity:0.49309"/>
              <stop offset="1" style="stop-color:#FFFFFF;stop-opacity:0.5"/>
            </linearGradient>
            <path class="highlight" fill="url(#ff6726df-1b88-4daa-a953-6d3b32b4154c)" d="M 543.262 -286.231 L 543.262 -286.23 L 543.262 -286.231 L 530.005 -285.557 L 513.478 -268.088 L 543.262 -268.088 C 546.931 -268.088 549.905 -264.731 549.905 -260.59 L 565.98 -260.59 C 565.98 -274.751 555.809 -286.231 543.262 -286.231 Z" stroke-width="0" stroke-linejoin="miter" stroke-miterlimit="2" opacity="1" style="stroke: rgb(31, 109, 227);" id="svg_36"/>
            <linearGradient id="db8ba971-fc48-4077-a08e-c20d33bf7c79" x1="-0.31277972051899705" y1="0.5000006228426288" x2="0.63397130141611" y2="0.5000006228426288" transform="translate(0,16.78321647644043) translate(-20.27971839904785,84.6153793334961) translate(-11.888111114501953,-4.195804119110107) translate(-244.75523376464844,-228.6713104248047) translate(5.684341886080802e-14,0) translate(701.653076171875,-50.400001525878906) scale(1) translate(-701.653076171875,50.400001525878906) translate(24.76259994506836,10.4920654296875) scale(1.1704524755477905,1.3090660572052002) translate(-24.76259994506836,-10.4920654296875) translate(3.8300414085388184,3.2973406314849854) scale(0.9819573760032654,0.9734391570091248) translate(-3.8300414085388184,-3.2973406314849854) translate(3.9004151821136475,9.51029109954834) scale(1.0538098812103271,1.0727615356445312) translate(-3.9004151821136475,-9.51029109954834) ">
              <stop offset="0.2556" style="stop-color:#000000;stop-opacity:0.4"/>
              <stop offset="0.461" style="stop-color:#0F0D0D;stop-opacity:0.28962"/>
              <stop offset="0.758" style="stop-color:#1E1A1B;stop-opacity:0.13006"/>
              <stop offset="1" style="stop-color:#231F20;stop-opacity:0"/>
            </linearGradient>
            <path class="highlight" fill="url(#db8ba971-fc48-4077-a08e-c20d33bf7c79)" d="M565.980201054145,-260.5900751574639 v-0.00008202095427624342 h-16.07504730546205 v0.00008202095427624342 c0,4.14059548393235 -2.9735437732868952,7.49705697482477 -6.642268526237782,7.497726812618026 v-0.0011619635189134478 l-9.69003340939768,0.00024606286282873 l14.277498744825218,17.62060261764244 C558.197727684003,-237.86793322574772 565.980201054145,-248.20298356932574 565.980201054145,-260.5900751574639 z" stroke-width="0" stroke-linejoin="miter" stroke-miterlimit="2" opacity="1" style="stroke: rgb(31, 109, 227);" id="svg_37"/>
          </g>
        </g>
      </g>
    </g>
    <text style="white-space: pre; fill: rgb(51, 51, 51); font-family: Arial, sans-serif; font-size: 26.5px;" x="340.904" y="212.467" id="svg_38"> </text>
  </g>
</svg>